<svg aria-hidden="true" style="position:absolute;width:0;height:0;overflow:hidden" xmlns="http://www.w3.org/2000/svg">
  <defs>
    <symbol id="icon-dish" viewBox="0 0 32 32">
      <path d="m12.002 8.58.002-1.584a4 4 0 0 1 4-3.996 3.99 3.99 0 0 1 3.99 3.99v1.586C25.828 10.355 30 15.69 30 21.999c0 .706-.052 1.4-.153 2.078l.009-.077H2.142a13.636 13.636 0 0 1-.143-1.999c0-6.307 4.169-11.641 9.902-13.395L12 8.58zM3 26h26a1 1 0 0 1 0 2H3a1 1 0 0 1 0-2zm1-4h24c0-6.627-5.373-12-12-12S4 15.373 4 22zM17.994 8V6.99A1.99 1.99 0 0 0 16.004 5a2 2 0 0 0-2 1.998V8h3.99z"/>
    </symbol>
    <symbol id="icon-history" viewBox="0 0 34 32">
      <path d="M20 2c7.732 0 14 6.268 14 14s-6.268 14-14 14v-3c2.938 0 5.701-1.144 7.778-3.222S31 18.938 31 16c0-2.938-1.144-5.701-3.222-7.778S22.938 5 20 5a10.925 10.925 0 0 0-7.778 3.222A10.922 10.922 0 0 0 9.181 14H15l-7 8-7-8h5.143C7.114 7.216 12.947 2 20 2zm6 12v4h-8V8h4v6z"/>
    </symbol>
    <symbol id="icon-bell" viewBox="0 0 32 32">
      <path d="M32.047 25c0-9-8-7-8-14 0-.58-.056-1.076-.158-1.498-.526-3.532-2.88-6.366-5.93-7.23.027-.123.041-.251.041-.382 0-1.04-.9-1.891-2-1.891S14 .85 14 1.89c0 .131.014.258.041.382-3.421.969-5.966 4.416-6.039 8.545L8 11c0 7-8 5-8 14 0 2.382 5.331 4.375 12.468 4.878a3.998 3.998 0 0 0 7.064 0C26.669 29.375 32 27.383 32 25l-.001-.021.048.021zm-6.227 1.691c-1.695.452-3.692.777-5.837.958a4 4 0 0 0-7.968 0c-2.144-.18-4.142-.506-5.837-.958-2.332-.622-3.447-1.318-3.855-1.691.408-.372 1.523-1.068 3.855-1.691 2.712-.724 6.199-1.122 9.82-1.122s7.109.398 9.82 1.122c2.332.622 3.447 1.318 3.855 1.691-.408.372-1.523 1.068-3.855 1.691z"/>
    </symbol>
    <symbol id="icon-quotes-left" viewBox="0 0 32 32">
      <path d="M7.031 14a7 7 0 1 1-7 7L0 20C0 12.268 6.268 6 14 6v4a9.934 9.934 0 0 0-7.071 2.929 10.24 10.24 0 0 0-.995 1.157A7.081 7.081 0 0 1 7.031 14zm18 0a7 7 0 1 1-7 7L18 20c0-7.732 6.268-14 14-14v4a9.934 9.934 0 0 0-7.071 2.929 10.24 10.24 0 0 0-.995 1.157A7.09 7.09 0 0 1 25.031 14z"/>
    </symbol>
    <symbol id="icon-play" viewBox="0 0 32 32">
      <path d="m6 4 20 12L6 28z"/>
    </symbol>
    <symbol id="icon-arrow-right" viewBox="0 0 32 32">
      <path d="m19.414 27.414 10-10a2 2 0 0 0 0-2.828l-10-10a2 2 0 1 0-2.828 2.828L23.172 14H4a2 2 0 1 0 0 4h19.172l-6.586 6.586c-.39.39-.586.902-.586 1.414s.195 1.024.586 1.414a2 2 0 0 0 2.828 0z"/>
    </symbol>
    <symbol id="icon-appleinc" viewBox="0 0 32 32">
      <path d="M24.734 17.003c-.04-4.053 3.305-5.996 3.454-6.093-1.88-2.751-4.808-3.127-5.851-3.171-2.492-.252-4.862 1.467-6.127 1.467-1.261 0-3.213-1.43-5.28-1.392-2.716.04-5.221 1.579-6.619 4.012-2.822 4.897-.723 12.151 2.028 16.123 1.344 1.944 2.947 4.127 5.051 4.049 2.026-.081 2.793-1.311 5.242-1.311s3.138 1.311 5.283 1.271c2.18-.041 3.562-1.981 4.897-3.931 1.543-2.255 2.179-4.439 2.216-4.551-.048-.022-4.252-1.632-4.294-6.473zM20.705 5.11C21.822 3.755 22.576 1.875 22.37 0c-1.609.066-3.559 1.072-4.713 2.423-1.036 1.199-1.942 3.113-1.699 4.951 1.796.14 3.629-.913 4.747-2.264z"/>
    </symbol>
    <symbol id="icon-android" viewBox="0 0 32 32">
      <path d="M28 12c-1.1 0-2 .9-2 2v8c0 1.1.9 2 2 2s2-.9 2-2v-8c0-1.1-.9-2-2-2zM4 12c-1.1 0-2 .9-2 2v8c0 1.1.9 2 2 2s2-.9 2-2v-8c0-1.1-.9-2-2-2zm3 11a3 3 0 0 0 3 3v4c0 1.1.9 2 2 2s2-.9 2-2v-4h4v4c0 1.1.9 2 2 2s2-.9 2-2v-4a3 3 0 0 0 3-3V12H7v11zM24.944 10a8.994 8.994 0 0 0-4.051-6.551l1.001-2.001a1 1 0 0 0-1.789-.895l-1.004 2.009-.261-.104C17.947 2.161 16.992 2 16 2s-1.947.161-2.84.458l-.261.104L11.895.553a1 1 0 0 0-1.789.895l1.001 2.001A8.996 8.996 0 0 0 7.056 10v1H25v-1h-.056zM13 8a1 1 0 0 1-.002-2h.005a1 1 0 0 1-.002 2zm6 0a1 1 0 0 1-.002-2h.005a1 1 0 0 1-.002 2z"/>
    </symbol>
  </defs>
</svg>